<?xml version="1.0" standalone="no"?>
<!DOCTYPE svg PUBLIC "-//W3C//DTD SVG 20010904//EN"
 "http://www.w3.org/TR/2001/REC-SVG-20010904/DTD/svg10.dtd">
<svg version="1.0" xmlns="http://www.w3.org/2000/svg"
 width="683.000000pt" height="581.000000pt" viewBox="0 0 683.000000 581.000000"
 preserveAspectRatio="xMidYMid meet">

<g transform="translate(0.000000,581.000000) scale(0.100000,-0.100000)"
fill="#000000" stroke="none">
<path d="M3477 4393 c-29 -57 -41 -138 -52 -333 l-6 -105 25 30 c48 56 99 138
119 189 33 86 24 211 -17 238 -24 17 -56 8 -69 -19z"/>
<path d="M3695 3956 c-5 -2 -38 -10 -72 -17 -35 -7 -63 -16 -63 -19 0 -6 210
-104 269 -125 52 -18 142 -20 159 -3 53 53 -83 151 -227 163 -31 3 -60 3 -66
1z"/>
<path d="M2805 3548 c-22 -5 -71 -15 -109 -22 -38 -7 -71 -17 -73 -23 -3 -7
26 -21 64 -33 l68 -22 80 40 c44 22 89 47 100 56 19 14 17 15 -35 15 -30 -1
-73 -5 -95 -11z"/>
<path d="M3605 3548 c-90 -19 -205 -51 -205 -58 0 -16 112 -40 186 -40 83 0
137 18 158 52 25 41 -50 66 -139 46z"/>
<path d="M2905 3494 c-43 -24 -83 -48 -88 -53 -12 -12 80 -31 152 -31 63 0 91
18 91 58 0 18 -57 75 -71 71 -2 -1 -40 -21 -84 -45z"/>
<path d="M3628 3339 c4 -4 25 -12 47 -19 22 -7 85 -36 140 -64 94 -48 104 -51
175 -51 90 0 138 17 147 53 8 34 -7 55 -49 69 -36 12 -473 23 -460 12z"/>
<path d="M1546 3091 c-4 -5 0 -38 8 -73 16 -72 58 -339 54 -344 -2 -1 -36 -10
-76 -18 -199 -41 -414 -211 -468 -368 -25 -71 -23 -162 3 -213 91 -177 351
-135 498 81 59 86 77 164 81 349 l2 150 32 -3 c42 -3 124 -39 146 -63 9 -10
22 -19 28 -19 6 1 -7 16 -28 36 -38 33 -116 64 -161 64 -20 0 -23 8 -35 93
-17 122 -58 319 -69 330 -5 5 -11 4 -15 -2z m64 -569 c0 -215 -33 -317 -132
-414 -142 -140 -306 -156 -385 -37 -39 60 -40 158 -1 242 46 98 167 211 295
276 61 31 201 73 216 64 4 -2 7 -61 7 -131z"/>
<path d="M6002 2914 c-34 -24 -30 -90 9 -143 17 -24 28 -45 25 -48 -3 -3 -69
-5 -147 -4 -298 2 -399 -42 -515 -220 -74 -114 -138 -154 -234 -147 -34 2 -44
7 -41 18 3 8 6 34 9 57 4 39 0 47 -32 79 -36 36 -38 37 -94 31 -31 -3 -68 -9
-82 -13 -25 -8 -25 -7 -7 19 21 32 21 37 2 37 -8 0 -22 -15 -31 -32 -46 -90
-176 -238 -226 -259 -28 -11 -33 -11 -48 9 -10 11 -22 53 -28 93 -6 39 -15 76
-20 81 -6 6 -34 -13 -73 -50 -35 -32 -74 -64 -86 -71 -106 -55 -89 100 19 183
40 30 70 33 93 10 9 -9 19 -13 23 -9 11 11 -37 45 -63 45 -13 0 -35 -4 -49
-10 -37 -13 -112 -85 -126 -120 -12 -30 -65 -71 -113 -89 -48 -18 -57 -14 -57
24 0 68 -54 134 -130 156 -59 18 -84 6 -130 -60 -50 -72 -92 -102 -188 -137
l-73 -27 -69 74 c-38 41 -72 82 -76 92 -9 29 23 57 66 57 43 0 60 -14 60 -52
0 -15 5 -28 10 -28 6 0 10 13 10 29 0 76 -120 96 -165 27 -15 -23 -15 -28 -1
-59 9 -18 39 -55 66 -82 28 -27 50 -54 50 -60 0 -5 -20 -21 -45 -34 -53 -28
-125 -98 -125 -122 0 -45 86 -63 150 -31 54 27 83 77 77 133 l-6 46 57 18 c87
27 133 53 178 101 l42 44 23 -37 c17 -29 22 -50 20 -86 -4 -59 16 -93 64 -106
59 -16 102 4 125 60 9 22 23 32 54 40 22 6 56 22 74 36 18 14 34 23 36 22 1
-2 6 -17 12 -34 11 -34 48 -51 89 -41 15 4 56 34 90 67 34 32 66 59 72 59 6 0
13 -32 16 -71 3 -39 13 -82 22 -95 34 -53 113 -15 200 95 27 34 50 60 52 58 2
-2 -3 -19 -9 -38 -9 -23 -13 -94 -13 -214 0 -191 9 -244 58 -324 33 -55 127
-97 127 -56 0 9 -10 15 -26 15 -41 0 -80 48 -106 131 -20 65 -23 94 -23 239 0
143 3 175 23 237 l22 72 54 12 c65 14 100 7 132 -28 26 -28 31 -69 11 -97 -12
-16 -17 -16 -89 5 -72 21 -77 22 -102 6 -34 -23 -34 -61 0 -83 37 -25 105 -21
157 8 29 17 50 22 63 17 51 -20 145 -1 204 41 16 11 50 53 76 93 121 185 214
228 491 226 76 0 155 2 176 6 21 4 43 3 50 -3 24 -19 153 -60 230 -72 92 -15
270 -8 371 14 38 9 71 18 74 21 13 13 -8 13 -50 1 -75 -23 -234 -39 -316 -32
-88 7 -196 34 -262 63 -45 20 -45 21 -19 31 72 29 120 102 93 141 -19 26 -40
26 -83 0 -18 -11 -34 -19 -35 -17 -1 2 -10 15 -19 30 -25 40 -49 50 -75 32z
m66 -44 l14 -25 -19 24 c-27 32 -53 22 -54 -21 -2 -31 -2 -32 -6 -5 -9 56 36
74 65 27z m102 -9 c0 -5 -11 -11 -25 -13 -14 -3 -25 -3 -25 -1 0 3 34 19 48
22 1 1 2 -3 2 -8z m28 -26 c-3 -3 -9 2 -12 12 -6 14 -5 15 5 6 7 -7 10 -15 7
-18z m-104 1 c10 1 15 -1 10 -6 -18 -17 -47 -15 -50 3 -2 13 1 15 9 9 7 -5 20
-8 31 -6z m79 -3 c-7 -2 -13 -12 -13 -20 0 -9 -3 -14 -6 -10 -10 10 4 37 18
36 10 0 10 -2 1 -6z m-23 -63 c-14 -11 -29 -20 -35 -20 -5 0 4 9 20 20 38 25
48 25 15 0z m-73 -25 c0 -8 -4 -12 -9 -9 -5 3 -6 10 -3 15 9 13 12 11 12 -6z
m-2098 -224 c12 -8 10 -14 -10 -39 -13 -16 -29 -38 -36 -48 -11 -19 -12 -18
-26 1 -26 34 -31 68 -11 82 20 15 63 17 83 4z m72 -52 c12 -17 24 -51 27 -75
4 -39 2 -44 -15 -44 -29 0 -84 20 -110 40 l-23 18 26 38 c44 64 62 69 95 23z
m-21 -129 c28 -7 50 -16 50 -21 0 -6 -11 -21 -25 -34 -50 -51 -135 -15 -135
58 0 44 8 50 36 28 14 -11 47 -24 74 -31z m946 34 c30 -8 54 -19 54 -23 0 -18
-79 -43 -114 -37 -45 9 -67 43 -40 63 23 17 34 16 100 -3z m-1415 -106 c4 -70
-15 -100 -75 -123 -53 -20 -96 -14 -96 14 0 30 124 130 163 131 4 0 8 -10 8
-22z"/>
<path d="M2227 2824 c-4 -4 -7 -16 -7 -26 0 -20 25 -25 36 -7 8 13 -19 43 -29
33z"/>
<path d="M2045 2536 c-9 -13 -18 -48 -22 -77 -10 -85 -69 -159 -126 -159 -12
0 -28 5 -35 12 -17 17 -15 94 4 157 15 52 13 74 -5 55 -16 -17 -41 -117 -41
-166 0 -98 78 -118 153 -38 21 22 39 40 41 40 2 0 6 -14 10 -32 14 -70 53 -76
119 -17 26 22 70 72 99 110 l52 70 13 -43 c27 -90 45 -209 33 -222 -6 -8 -86
-65 -178 -127 -285 -194 -363 -289 -364 -437 -1 -109 48 -180 146 -212 125
-41 320 70 397 225 52 106 70 283 50 484 l-7 75 81 80 c45 45 96 99 114 121
18 22 30 31 26 20 -4 -11 -9 -48 -12 -81 -5 -53 -3 -64 16 -83 37 -37 78 -28
132 28 l47 49 5 -35 c13 -79 56 -84 129 -15 65 60 170 202 150 202 -5 0 -30
-31 -56 -69 -55 -81 -137 -161 -165 -161 -12 0 -23 11 -30 31 -17 48 -13 81
14 143 27 62 30 81 15 91 -26 16 -40 -15 -66 -151 -7 -37 -80 -104 -114 -104
-51 0 -63 55 -35 160 26 95 18 94 -63 -8 -34 -44 -90 -105 -124 -138 -71 -68
-65 -74 -100 85 -22 102 -43 150 -55 123 -12 -29 -122 -169 -157 -199 -47 -42
-71 -42 -85 -2 -16 48 -14 76 15 147 24 61 26 92 5 92 -6 0 -18 -11 -26 -24z
m16 -37 c-9 -22 -10 -22 -10 -3 -1 11 2 24 6 27 12 12 14 0 4 -24z m770 -6
c-10 -17 -10 -16 -11 3 0 23 13 41 18 25 2 -6 -1 -18 -7 -28z m-469 -365 c9
-311 -20 -428 -134 -542 -84 -84 -142 -111 -234 -111 -62 0 -75 3 -107 28 -55
42 -72 80 -71 162 0 60 5 79 34 133 42 79 109 141 282 260 73 50 151 105 173
121 22 17 43 31 48 31 4 0 8 -37 9 -82z"/>
</g>
</svg>
